<?xml version="1.0" encoding="utf-8"?>
<!-- Generator: Adobe Illustrator 16.0.0, SVG Export Plug-In . SVG Version: 6.00 Build 0)  -->
<!DOCTYPE svg PUBLIC "-//W3C//DTD SVG 1.1//EN" "http://www.w3.org/Graphics/SVG/1.1/DTD/svg11.dtd">
<svg version="1.1" xmlns="http://www.w3.org/2000/svg" xmlns:xlink="http://www.w3.org/1999/xlink" x="0px" y="0px" width="800px"
	 height="800px" viewBox="0 0 800 800" enable-background="new 0 0 800 800" xml:space="preserve">
<g id="Food">
	<g id="d">
		<polyline points="580,310 570,310 570,170 680,170 710,200 710,280 680,310 580,310 580,300 680,300 700,280 700,200 680,180 
			580,180 580,310 		"/>
	</g>
	<g id="o1">
		<g id="Tomato">
			<rect x="250" y="230" fill="#DB1F26" width="140" height="10"/>
		</g>
		<g id="Lettuce">
			<rect x="250" y="210" fill="#A9CF38" width="140" height="10"/>
		</g>
		<g id="Bottom_Bun">
			<polygon fill="#ED8523" points="250,280 260,310 380,310 390,280 			"/>
		</g>
		<g id="Patty">
			<rect x="250" y="250" fill="#792B1C" width="140" height="20"/>
		</g>
		<g id="Top_Bun">
			<polygon fill="#ED8523" points="250,200 250,190 260,170 380,170 390,190 390,200 			"/>
		</g>
	</g>
	<g id="f">
		<polygon points="90,310 90,170 230,170 230,180 100,180 100,310 		"/>
		<polygon points="90,240 220,240 220,250 100,250 		"/>
	</g>
	<g id="o2">
		<g id="Tomato_1_">
			<rect x="410" y="230" fill="#DB2027" width="140" height="10"/>
		</g>
		<g id="Lettuce_1_">
			<rect x="410" y="210" fill="#A8CF38" width="140" height="10"/>
		</g>
		<g id="Bottom_Bun_1_">
			<polygon fill="#ED8523" points="410,280 420,310 540,310 550,280 			"/>
		</g>
		<g id="Patty_1_">
			<rect x="410" y="250" fill="#792B1B" width="140" height="20"/>
		</g>
		<g id="Top_Bun_1_">
			<polygon fill="#ED8523" points="410,200 410,190 420,170 540,170 550,190 550,200 			"/>
		</g>
	</g>
</g>
<g id="Mood">
	<g id="D">
		<polyline points="580,470 570,470 570,330 680,330 710,360 710,440 680,470 580,470 580,460 680,460 700,440 700,360 680,340 
			580,340 580,470 		"/>
	</g>
	<g id="o2_1_" display="none">
		<g id="Layer_25" display="inline">
		</g>
		<polyline display="inline" fill="none" stroke="#000000" stroke-miterlimit="10" points="440,370 430,380 430,390 440,400 
			450,400 460,390 460,380 450,370 440,370 		"/>
		<polyline display="inline" fill="none" stroke="#000000" stroke-miterlimit="10" points="430,360 470,360 471.961,369.808 
			428.039,369.808 430,360 		"/>
		<path display="inline" fill="none" stroke="#000000" stroke-miterlimit="10" d="M440,370"/>
		<polygon display="inline" fill="none" stroke="#000000" stroke-miterlimit="10" points="430,360 470,360 480,410 470,470 430,470 
			420,410 		"/>
		<polygon display="inline" fill="none" stroke="#000000" stroke-miterlimit="10" points="450,340 480,350 480,340 450,330 		"/>
	</g>
	<g id="o1_1_" display="none">
		<g id="Layer_21" display="inline">
		</g>
		<g id="Layer_22" display="inline">
			<polyline fill="none" stroke="#000000" stroke-miterlimit="10" points="350,370 340,380 340,390 350,400 360,400 370,390 
				370,380 360,370 350,370 			"/>
		</g>
		<g id="Layer_23" display="inline">
			<polyline fill="none" stroke="#000000" stroke-miterlimit="10" points="330,360 370,360 371.961,369.808 328.039,369.808 
				330,360 			"/>
			<path fill="none" stroke="#000000" stroke-miterlimit="10" d="M340,370"/>
		</g>
		<g id="Layer_24" display="inline">
			<polygon fill="none" stroke="#000000" stroke-miterlimit="10" points="330,360 370,360 380,410 370,470 330,470 320,410 			"/>
		</g>
		<polygon display="inline" fill="none" stroke="#000000" stroke-miterlimit="10" points="350,340 320,350 320,340 350,330 		"/>
	</g>
	<g id="M">
		<polygon points="230,470 230,330 160,430 90,330 90,470 100,470 100,370 160,450 220,370 220,470 		"/>
	</g>
	<g id="OO">
		<rect x="250" y="390" fill="#DB1F26" width="140" height="10"/>
		<rect x="250" y="370" fill="#A9CF38" width="140" height="10"/>
		<polygon fill="#ED8523" points="250,440 260,470 380,470 390,440 		"/>
		<rect x="250" y="410" fill="#792B1C" width="140" height="20"/>
		<polygon fill="#ED8523" points="250,360 250,350 260,330 380,330 390,350 390,360 		"/>
		<rect x="410" y="390" fill="#DB2027" width="140" height="10"/>
		<rect x="410" y="370" fill="#A8CF38" width="140" height="10"/>
		<polygon fill="#ED8523" points="410,440 420,470 540,470 550,440 		"/>
		<rect x="410" y="410" fill="#792B1B" width="140" height="20"/>
		<polygon fill="#ED8523" points="410,360 410,350 420,330 540,330 550,350 550,360 		"/>
	</g>
</g>
</svg>
